<svg version="1.1" viewBox="0.0 0.0 600.0 371.0" fill="none" stroke="none" stroke-linecap="square" stroke-miterlimit="10" width="600" height="371" xmlns:xlink="http://www.w3.org/1999/xlink" xmlns="http://www.w3.org/2000/svg"><path fill="#ffffff" d="M0 0L600.0 0L600.0 371.0L0 371.0L0 0Z" fill-rule="nonzero"/><path fill="#4285f4" d="M300.0 18.55C303.54413 18.55 307.0874 18.662857 310.62436 18.8884L300.0 185.5Z" fill-rule="nonzero"/><path fill="#ea4335" d="M310.62436 18.8884C325.97424 19.867218 341.11523 22.962566 355.61768 28.08661L300.0 185.5Z" fill-rule="nonzero"/><path fill="#7baaf7" d="M228.01958 34.86428C250.49548 24.124294 275.08987 18.55 300.0 18.55L300.0 185.5Z" fill-rule="nonzero"/><path fill="#46bdc6" d="M189.70035 60.17526C201.24649 50.01338 214.14154 41.49582 228.01958 34.86428L300.0 185.5Z" fill-rule="nonzero"/><path fill="#ff6d01" d="M215.50407 329.48868C169.30481 302.37787 138.92004 254.74535 133.81108 201.42305C128.7021 148.10077 149.48947 95.565285 189.70035 60.17526L300.0 185.5Z" fill-rule="nonzero"/><path fill="#34a853" d="M257.93225 347.06302C243.0475 343.18732 228.76973 337.2733 215.50407 329.48868L300.0 185.5Z" fill-rule="nonzero"/><path fill="#fbbc04" d="M355.61768 28.08661C439.95624 57.88531 485.82446 148.85953 459.63205 234.38676C433.4396 319.914 344.49408 369.60196 257.93225 347.06302L300.0 185.5Z" fill-rule="nonzero"/><path fill="#000000" d="M325.53055 58.820683L320.03055 58.820683L320.03055 57.773808L322.13992 57.773808L322.13992 50.961308L320.03055 50.961308L320.03055 50.023808Q320.45242 50.023808 320.9368 49.961308Q321.4368 49.883183 321.6868 49.742558Q322.01492 49.570683 322.1868 49.320683Q322.3743 49.055058 322.38992 48.601933L323.45242 48.601933L323.45242 57.773808L325.53055 57.773808L325.53055 58.820683ZM334.21805 53.914433Q334.54617 54.211308 334.7493 54.664433Q334.96805 55.101933 334.96805 55.805058Q334.96805 56.508183 334.71805 57.086308Q334.46805 57.664433 334.01492 58.101933Q333.4993 58.570683 332.79617 58.805058Q332.10867 59.039433 331.28055 59.039433Q330.4368 59.039433 329.60867 58.836308Q328.79617 58.633183 328.26492 58.383183L328.26492 56.961308L328.3743 56.961308Q328.95242 57.336308 329.73367 57.601933Q330.51492 57.851933 331.2493 57.851933Q331.6868 57.851933 332.17117 57.711308Q332.65555 57.555058 332.95242 57.289433Q333.26492 56.976933 333.42117 56.617558Q333.57742 56.258183 333.57742 55.695683Q333.57742 55.148808 333.40555 54.805058Q333.23367 54.445683 332.92117 54.226933Q332.60867 54.023808 332.17117 53.945683Q331.73367 53.867558 331.23367 53.867558L330.6243 53.867558L330.6243 52.726933L331.09305 52.726933Q332.13992 52.726933 332.7493 52.305058Q333.3743 51.867558 333.3743 51.023808Q333.3743 50.664433 333.21805 50.383183Q333.0618 50.101933 332.78055 49.930058Q332.48367 49.742558 332.13992 49.680058Q331.8118 49.617558 331.38992 49.617558Q330.73367 49.617558 329.9993 49.851933Q329.28055 50.070683 328.6243 50.508183L328.5618 50.508183L328.5618 49.070683Q329.04617 48.836308 329.85867 48.633183Q330.67117 48.430058 331.42117 48.430058Q332.17117 48.430058 332.73367 48.570683Q333.3118 48.695683 333.76492 49.008183Q334.2493 49.336308 334.4993 49.805058Q334.76492 50.258183 334.76492 50.883183Q334.76492 51.726933 334.15555 52.367558Q333.5618 52.992558 332.7493 53.164433L332.7493 53.258183Q333.07742 53.305058 333.4993 53.492558Q333.92117 53.664433 334.21805 53.914433Z" fill-rule="nonzero"/><path fill="#000000" d="M418.02823 229.51193L412.52823 229.51193L412.52823 228.46506L414.6376 228.46506L414.6376 221.65256L412.52823 221.65256L412.52823 220.71506Q412.9501 220.71506 413.43448 220.65256Q413.93448 220.57443 414.18448 220.4338Q414.5126 220.26193 414.68448 220.01193Q414.87198 219.7463 414.8876 219.29318L415.9501 219.29318L415.9501 228.46506L418.02823 228.46506L418.02823 229.51193ZM427.84073 226.65256L426.34073 226.65256L426.34073 229.51193L425.02823 229.51193L425.02823 226.65256L420.15323 226.65256L420.15323 225.07443L425.0751 219.34006L426.34073 219.34006L426.34073 225.5588L427.84073 225.5588L427.84073 226.65256ZM425.02823 225.5588L425.02823 220.96506L421.0751 225.5588L425.02823 225.5588ZM436.84073 226.65256L435.34073 226.65256L435.34073 229.51193L434.02823 229.51193L434.02823 226.65256L429.15323 226.65256L429.15323 225.07443L434.0751 219.34006L435.34073 219.34006L435.34073 225.5588L436.84073 225.5588L436.84073 226.65256ZM434.02823 225.5588L434.02823 220.96506L430.0751 225.5588L434.02823 225.5588Z" fill-rule="nonzero"/><path fill="#000000" d="M247.58676 314.1891L242.08676 314.1891L242.08676 313.1422L244.19614 313.1422L244.19614 306.3297L242.08676 306.3297L242.08676 305.3922Q242.50864 305.3922 242.99301 305.3297Q243.49301 305.2516 243.74301 305.11096Q244.07114 304.9391 244.24301 304.6891Q244.43051 304.42346 244.44614 303.97034L245.50864 303.97034L245.50864 313.1422L247.58676 313.1422L247.58676 314.1891ZM256.27426 309.28284Q256.6024 309.5797 256.8055 310.03284Q257.02426 310.47034 257.02426 311.17346Q257.02426 311.8766 256.77426 312.4547Q256.52426 313.03284 256.07114 313.47034Q255.55551 313.9391 254.85239 314.17346Q254.16489 314.40784 253.33676 314.40784Q252.49301 314.40784 251.66489 314.2047Q250.85239 314.0016 250.32114 313.7516L250.32114 312.3297L250.43051 312.3297Q251.00864 312.7047 251.78989 312.97034Q252.57114 313.22034 253.30551 313.22034Q253.74301 313.22034 254.22739 313.0797Q254.71176 312.92346 255.00864 312.65784Q255.32114 312.34534 255.47739 311.98596Q255.63364 311.6266 255.63364 311.0641Q255.63364 310.5172 255.46176 310.17346Q255.28989 309.8141 254.97739 309.59534Q254.66489 309.3922 254.22739 309.3141Q253.78989 309.23596 253.28989 309.23596L252.68051 309.23596L252.68051 308.09534L253.14926 308.09534Q254.19614 308.09534 254.80551 307.67346Q255.43051 307.23596 255.43051 306.3922Q255.43051 306.03284 255.27426 305.7516Q255.11801 305.47034 254.83676 305.29846Q254.53989 305.11096 254.19614 305.04846Q253.86801 304.98596 253.44614 304.98596Q252.78989 304.98596 252.05551 305.22034Q251.33676 305.4391 250.68051 305.8766L250.61801 305.8766L250.61801 304.4391Q251.10239 304.2047 251.91489 304.0016Q252.72739 303.79846 253.47739 303.79846Q254.22739 303.79846 254.78989 303.9391Q255.36801 304.0641 255.82114 304.3766Q256.3055 304.7047 256.5555 305.17346Q256.82114 305.6266 256.82114 306.2516Q256.82114 307.09534 256.21176 307.73596Q255.61801 308.36096 254.80551 308.53284L254.80551 308.6266Q255.13364 308.67346 255.55551 308.86096Q255.97739 309.03284 256.27426 309.28284Z" fill-rule="nonzero"/><path fill="#000000" d="M162.37665 201.75253Q162.37665 203.08066 161.3454 203.95566Q160.32977 204.83066 158.76727 204.83066Q157.11102 204.83066 156.12665 203.97128Q155.14227 203.11191 155.14227 201.78378Q155.14227 200.94003 155.62665 200.25253Q156.12665 199.56503 157.0329 199.15878L157.0329 199.12753Q156.20477 198.69003 155.81415 198.17441Q155.42352 197.64316 155.42352 196.86191Q155.42352 195.72128 156.36102 194.95566Q157.31415 194.19003 158.76727 194.19003Q160.2829 194.19003 161.18915 194.92441Q162.11102 195.64316 162.11102 196.76816Q162.11102 197.47128 161.67352 198.14316Q161.25165 198.79941 160.4079 199.17441L160.4079 199.22128Q161.37665 199.62753 161.87665 200.23691Q162.37665 200.83066 162.37665 201.75253ZM160.76727 196.78378Q160.76727 196.06503 160.18915 195.62753Q159.62665 195.19003 158.75165 195.19003Q157.89227 195.19003 157.3454 195.59628Q156.79852 196.00253 156.79852 196.70566Q156.79852 197.20566 157.06415 197.56503Q157.3454 197.92441 157.9079 198.19003Q158.1579 198.31503 158.62665 198.51816Q159.11102 198.72128 159.56415 198.84628Q160.23602 198.39316 160.50165 197.90878Q160.76727 197.42441 160.76727 196.78378ZM160.9704 201.89316Q160.9704 201.25253 160.68915 200.87753Q160.42352 200.50253 159.61102 200.11191Q159.29852 199.97128 158.9079 199.84628Q158.5329 199.70566 157.89227 199.47128Q157.26727 199.81503 156.89227 200.39316Q156.5329 200.95566 156.5329 201.69003Q156.5329 202.61191 157.1579 203.22128Q157.79852 203.81503 158.7829 203.81503Q159.7829 203.81503 160.37665 203.29941Q160.9704 202.78378 160.9704 201.89316ZM171.29852 198.89316Q171.29852 200.22128 170.98602 201.31503Q170.68915 202.40878 170.06415 203.17441Q169.43915 203.94003 168.50165 204.37753Q167.57977 204.79941 166.31415 204.79941Q165.95477 204.79941 165.64227 204.75253Q165.32977 204.72128 165.07977 204.64316L165.07977 203.33066L165.14227 203.33066Q165.3454 203.44003 165.70477 203.53378Q166.06415 203.61191 166.51727 203.61191Q168.01727 203.61191 168.87665 202.70566Q169.73602 201.79941 169.87665 200.22128Q169.23602 200.59628 168.67352 200.76816Q168.12665 200.92441 167.45477 200.92441Q166.82977 200.92441 166.31415 200.79941Q165.81415 200.67441 165.29852 200.33066Q164.68915 199.90878 164.37665 199.26816Q164.07977 198.62753 164.07977 197.72128Q164.07977 196.17441 165.11102 195.19003Q166.14227 194.20566 167.61102 194.20566Q168.3454 194.20566 168.9704 194.44003Q169.61102 194.67441 170.07977 195.12753Q170.6579 195.69003 170.9704 196.59628Q171.29852 197.48691 171.29852 198.89316ZM169.9079 198.59628Q169.9079 197.53378 169.68915 196.89316Q169.4704 196.25253 169.0954 195.89316Q168.76727 195.59628 168.39227 195.47128Q168.0329 195.33066 167.5954 195.33066Q166.61102 195.33066 166.0329 195.94003Q165.4704 196.54941 165.4704 197.67441Q165.4704 198.31503 165.6579 198.73691Q165.8454 199.14316 166.2829 199.45566Q166.5954 199.65878 166.95477 199.73691Q167.32977 199.79941 167.7829 199.79941Q168.31415 199.79941 168.86102 199.65878Q169.4079 199.51816 169.87665 199.23691Q169.89227 199.09628 169.89227 198.95566Q169.9079 198.81503 169.9079 198.59628Z" fill-rule="nonzero"/><path fill="#000000" d="M226.1012 82.03475L220.6012 82.03475L220.6012 80.98788L222.71057 80.98788L222.71057 74.17538L220.6012 74.17538L220.6012 73.23788Q221.02307 73.23788 221.50745 73.17538Q222.00745 73.09725 222.25745 72.95663Q222.58557 72.78475 222.75745 72.53475Q222.94495 72.26913 222.96057 71.816L224.02307 71.816L224.02307 80.98788L226.1012 80.98788L226.1012 82.03475ZM234.7887 77.1285Q235.11682 77.42538 235.31995 77.8785Q235.5387 78.316 235.5387 79.01913Q235.5387 79.72225 235.2887 80.30038Q235.0387 80.8785 234.58557 81.316Q234.06995 81.78475 233.36682 82.01913Q232.67932 82.2535 231.8512 82.2535Q231.00745 82.2535 230.17932 82.05038Q229.36682 81.84725 228.83557 81.59725L228.83557 80.17538L228.94495 80.17538Q229.52307 80.55038 230.30432 80.816Q231.08557 81.066 231.81995 81.066Q232.25745 81.066 232.74182 80.92538Q233.2262 80.76913 233.52307 80.5035Q233.83557 80.191 233.99182 79.83163Q234.14807 79.47225 234.14807 78.90975Q234.14807 78.36288 233.9762 78.01913Q233.80432 77.65975 233.49182 77.441Q233.17932 77.23788 232.74182 77.15975Q232.30432 77.08163 231.80432 77.08163L231.19495 77.08163L231.19495 75.941L231.6637 75.941Q232.71057 75.941 233.31995 75.51913Q233.94495 75.08163 233.94495 74.23788Q233.94495 73.8785 233.7887 73.59725Q233.63245 73.316 233.3512 73.14413Q233.05432 72.95663 232.71057 72.89413Q232.38245 72.83163 231.96057 72.83163Q231.30432 72.83163 230.56995 73.066Q229.8512 73.28475 229.19495 73.72225L229.13245 73.72225L229.13245 72.28475Q229.61682 72.05038 230.42932 71.84725Q231.24182 71.64413 231.99182 71.64413Q232.74182 71.64413 233.30432 71.78475Q233.88245 71.90975 234.33557 72.22225Q234.81995 72.55038 235.06995 73.01913Q235.33557 73.47225 235.33557 74.09725Q235.33557 74.941 234.7262 75.58163Q234.13245 76.20663 233.31995 76.3785L233.31995 76.47225Q233.64807 76.51913 234.06995 76.70663Q234.49182 76.8785 234.7887 77.1285Z" fill-rule="nonzero"/><path fill="#000000" d="M269.12546 59.759094L262.23483 59.759094L262.23483 58.33722Q262.95358 57.71222 263.67233 57.102844Q264.4067 56.477844 265.0317 55.86847Q266.3442 54.602844 266.82858 53.852844Q267.31296 53.102844 267.31296 52.24347Q267.31296 51.446594 266.7817 51.009094Q266.26608 50.55597 265.32858 50.55597Q264.70358 50.55597 263.9692 50.77472Q263.25046 50.99347 262.56296 51.446594L262.50046 51.446594L262.50046 50.009094Q262.98483 49.759094 263.7817 49.571594Q264.5942 49.36847 265.35983 49.36847Q266.92233 49.36847 267.81296 50.134094Q268.70358 50.884094 268.70358 52.165344Q268.70358 52.759094 268.54733 53.259094Q268.4067 53.759094 268.12546 54.21222Q267.85983 54.634094 267.50046 55.040344Q267.14108 55.446594 266.62546 55.946594Q265.89108 56.665344 265.10983 57.33722Q264.32858 58.009094 263.6567 58.58722L269.12546 58.58722L269.12546 59.759094ZM277.54733 59.759094L272.04733 59.759094L272.04733 58.71222L274.1567 58.71222L274.1567 51.89972L272.04733 51.89972L272.04733 50.96222Q272.4692 50.96222 272.95358 50.89972Q273.45358 50.821594 273.70358 50.68097Q274.0317 50.509094 274.20358 50.259094Q274.39108 49.99347 274.4067 49.540344L275.4692 49.540344L275.4692 58.71222L277.54733 58.71222L277.54733 59.759094Z" fill-rule="nonzero"/><path fill="#1a1a1a" d="M25.940624 23.8625L22.83125 23.8625L22.83125 31.55L21.675 31.55L21.675 23.8625L18.55 23.8625L18.55 22.83125L25.940624 22.83125L25.940624 23.8625ZM30.721874 26.20625L30.659374 26.20625Q30.409374 26.14375 30.175 26.128124Q29.95625 26.096874 29.628124 26.096874Q29.128124 26.096874 28.64375 26.33125Q28.175 26.55 27.7375 26.909374L27.7375 31.55L26.628124 31.55L26.628124 25.003124L27.7375 25.003124L27.7375 25.971874Q28.39375 25.440624 28.89375 25.221874Q29.39375 25.003124 29.909374 25.003124Q30.20625 25.003124 30.33125 25.01875Q30.45625 25.034374 30.721874 25.08125L30.721874 26.20625ZM36.721874 31.55L35.628124 31.55L35.628124 30.846874Q35.471874 30.95625 35.221874 31.14375Q34.9875 31.315624 34.753124 31.409374Q34.471874 31.55 34.1125 31.64375Q33.753124 31.7375 33.26875 31.7375Q32.39375 31.7375 31.76875 31.159374Q31.159374 30.565624 31.159374 29.64375Q31.159374 28.909374 31.471874 28.45625Q31.8 27.9875 32.39375 27.721874Q32.9875 27.45625 33.815624 27.3625Q34.659374 27.26875 35.628124 27.221874L35.628124 27.05Q35.628124 26.675 35.4875 26.440624Q35.3625 26.190624 35.1125 26.05Q34.878124 25.909374 34.55 25.8625Q34.221874 25.815624 33.8625 25.815624Q33.440624 25.815624 32.89375 25.940624Q32.3625 26.05 31.8 26.26875L31.7375 26.26875L31.7375 25.14375Q32.065624 25.05 32.675 24.95625Q33.284374 24.846874 33.878124 24.846874Q34.565624 24.846874 35.08125 24.971874Q35.596874 25.08125 35.971874 25.346874Q36.33125 25.6125 36.51875 26.05Q36.721874 26.471874 36.721874 27.1125L36.721874 31.55ZM35.628124 29.940624L35.628124 28.1125Q35.128124 28.14375 34.440624 28.20625Q33.753124 28.26875 33.3625 28.378124Q32.878124 28.503124 32.58125 28.8Q32.3 29.08125 32.3 29.58125Q32.3 30.14375 32.628124 30.425Q32.971874 30.70625 33.675 30.70625Q34.253124 30.70625 34.7375 30.4875Q35.221874 30.253124 35.628124 29.940624ZM39.815624 23.909374L38.58125 23.909374L38.58125 22.76875L39.815624 22.76875L39.815624 23.909374ZM39.753124 31.55L38.64375 31.55L38.64375 25.003124L39.753124 25.003124L39.753124 31.55ZM47.1125 31.55L46.003124 31.55L46.003124 27.815624Q46.003124 27.378124 45.940624 26.9875Q45.89375 26.58125 45.753124 26.3625Q45.6125 26.1125 45.33125 26.003124Q45.065624 25.878124 44.628124 25.878124Q44.175 25.878124 43.675 26.096874Q43.190624 26.315624 42.7375 26.659374L42.7375 31.55L41.628124 31.55L41.628124 25.003124L42.7375 25.003124L42.7375 25.7375Q43.253124 25.3 43.8 25.065624Q44.346874 24.815624 44.940624 24.815624Q45.9875 24.815624 46.55 25.45625Q47.1125 26.096874 47.1125 27.3L47.1125 31.55ZM50.815624 23.909374L49.58125 23.909374L49.58125 22.76875L50.815624 22.76875L50.815624 23.909374ZM50.753124 31.55L49.64375 31.55L49.64375 25.003124L50.753124 25.003124L50.753124 31.55ZM58.1125 31.55L57.003124 31.55L57.003124 27.815624Q57.003124 27.378124 56.940624 26.9875Q56.89375 26.58125 56.753124 26.3625Q56.6125 26.1125 56.33125 26.003124Q56.065624 25.878124 55.628124 25.878124Q55.175 25.878124 54.675 26.096874Q54.190624 26.315624 53.7375 26.659374L53.7375 31.55L52.628124 31.55L52.628124 25.003124L53.7375 25.003124L53.7375 25.7375Q54.253124 25.3 54.8 25.065624Q55.346874 24.815624 55.940624 24.815624Q56.9875 24.815624 57.55 25.45625Q58.1125 26.096874 58.1125 27.3L58.1125 31.55ZM65.94063 30.8Q65.94063 32.471874 65.175 33.253124Q64.425 34.034374 62.8625 34.034374Q62.346874 34.034374 61.846874 33.95625Q61.346874 33.878124 60.8625 33.753124L60.8625 32.628124L60.925 32.628124Q61.190624 32.721874 61.76875 32.878124Q62.3625 33.034374 62.95625 33.034374Q63.51875 33.034374 63.878124 32.89375Q64.25313 32.76875 64.45625 32.534374Q64.65938 32.3 64.75313 31.971874Q64.84688 31.659374 64.84688 31.253124L64.84688 30.659374Q64.34688 31.05 63.89375 31.253124Q63.440624 31.45625 62.7375 31.45625Q61.565624 31.45625 60.878124 30.6125Q60.190624 29.753124 60.190624 28.221874Q60.190624 27.378124 60.425 26.76875Q60.659374 26.14375 61.065624 25.70625Q61.45625 25.284374 61.9875 25.05Q62.534374 24.815624 63.08125 24.815624Q63.64375 24.815624 64.01875 24.940624Q64.40938 25.05 64.84688 25.284374L64.90938 25.003124L65.94063 25.003124L65.94063 30.8ZM64.84688 29.753124L64.84688 26.175Q64.40938 25.9875 64.01875 25.909374Q63.64375 25.815624 63.26875 25.815624Q62.3625 25.815624 61.83125 26.425Q61.315624 27.034374 61.315624 28.190624Q61.315624 29.3 61.70625 29.8625Q62.096874 30.425 62.9875 30.425Q63.471874 30.425 63.95625 30.253124Q64.44063 30.065624 64.84688 29.753124Z" fill-rule="nonzero"/><path fill="#9e9e9e" d="M25.425 43.128124L21.471874 50.55L20.221874 50.55L24.425 42.846874L19.45625 42.846874L19.45625 41.83125L25.425 41.83125L25.425 43.128124ZM29.925 48.878124L28.26875 52.721874L27.409374 52.721874L28.425 48.878124L29.925 48.878124ZM36.909374 50.55L32.175 50.55L32.175 49.659374L34.003124 49.659374L34.003124 43.815624L32.175 43.815624L32.175 43.01875Q32.55 43.01875 32.971874 42.95625Q33.39375 42.89375 33.6125 42.76875Q33.878124 42.628124 34.034374 42.409374Q34.190624 42.175 34.20625 41.8L35.128124 41.8L35.128124 49.659374L36.909374 49.659374L36.909374 50.55ZM43.7375 44.2375Q43.7375 45.55 43.175 46.190624Q42.628124 46.83125 41.58125 46.83125Q40.51875 46.83125 39.971874 46.190624Q39.425 45.55 39.425 44.253124Q39.425 42.940624 39.971874 42.3Q40.534374 41.659374 41.58125 41.659374Q42.64375 41.659374 43.190624 42.315624Q43.7375 42.95625 43.7375 44.2375ZM47.784374 41.83125L43.20625 50.55L42.2375 50.55L46.815624 41.83125L47.784374 41.83125ZM50.596874 48.128124Q50.596874 49.440624 50.034374 50.08125Q49.471874 50.721874 48.440624 50.721874Q47.378124 50.721874 46.83125 50.08125Q46.284374 49.425 46.284374 48.128124Q46.284374 46.815624 46.83125 46.190624Q47.39375 45.55 48.440624 45.55Q49.503124 45.55 50.05 46.190624Q50.596874 46.815624 50.596874 48.128124ZM42.690624 44.2375Q42.690624 43.2375 42.425 42.846874Q42.159374 42.440624 41.58125 42.440624Q40.9875 42.440624 40.721874 42.846874Q40.471874 43.2375 40.471874 44.253124Q40.471874 45.26875 40.721874 45.659374Q40.9875 46.05 41.58125 46.05Q42.159374 46.05 42.425 45.659374Q42.690624 45.26875 42.690624 44.2375ZM49.55 48.128124Q49.55 47.128124 49.284374 46.7375Q49.034374 46.33125 48.440624 46.33125Q47.846874 46.33125 47.58125 46.7375Q47.33125 47.128124 47.33125 48.128124Q47.33125 49.14375 47.58125 49.55Q47.846874 49.940624 48.440624 49.940624Q49.034374 49.940624 49.284374 49.55Q49.55 49.14375 49.55 48.128124Z" fill-rule="nonzero"/><path stroke="#757575" stroke-width="1.0" stroke-linecap="butt" d="M18.55 36.05L127.05 36.05L264.9421 30.820663" fill-rule="nonzero"/><path fill="#9e9e9e" d="M266.9421 30.820663C266.9421 29.716093 266.0467 28.820663 264.9421 28.820663C263.83755 28.820663 262.9421 29.716093 262.9421 30.820663C262.9421 31.925232 263.83755 32.820663 264.9421 32.820663C266.0467 32.820663 266.9421 31.925232 266.9421 30.820663" fill-rule="nonzero"/><path fill="#1a1a1a" d="M27.4875 66.55L26.33125 66.55L26.33125 59.034378L23.909374 64.14375L23.221874 64.14375L20.8 59.034378L20.8 66.55L19.721874 66.55L19.721874 57.831253L21.3 57.831253L23.628124 62.675003L25.878124 57.831253L27.4875 57.831253L27.4875 66.55ZM34.721874 66.55L33.628124 66.55L33.628124 65.84688Q33.471874 65.95625 33.221874 66.14375Q32.9875 66.31563 32.753124 66.40938Q32.471874 66.55 32.1125 66.64375Q31.753124 66.7375 31.26875 66.7375Q30.39375 66.7375 29.76875 66.15938Q29.159374 65.56563 29.159374 64.64375Q29.159374 63.909378 29.471874 63.456253Q29.8 62.987503 30.39375 62.721878Q30.9875 62.456253 31.815624 62.362503Q32.659374 62.268753 33.628124 62.221878L33.628124 62.050003Q33.628124 61.675003 33.4875 61.440628Q33.3625 61.190628 33.1125 61.050003Q32.878124 60.909378 32.55 60.862503Q32.221874 60.815628 31.8625 60.815628Q31.440624 60.815628 30.89375 60.940628Q30.3625 61.050003 29.8 61.268753L29.7375 61.268753L29.7375 60.143753Q30.065624 60.050003 30.675 59.956253Q31.284374 59.846878 31.878124 59.846878Q32.565624 59.846878 33.08125 59.971878Q33.596874 60.081253 33.971874 60.346878Q34.33125 60.612503 34.51875 61.050003Q34.721874 61.471878 34.721874 62.112503L34.721874 66.55ZM33.628124 64.94063L33.628124 63.112503Q33.128124 63.143753 32.440624 63.206253Q31.753124 63.268753 31.3625 63.378128Q30.878124 63.503128 30.58125 63.800003Q30.3 64.08125 30.3 64.58125Q30.3 65.14375 30.628124 65.425Q30.971874 65.70625 31.675 65.70625Q32.253124 65.70625 32.7375 65.4875Q33.221874 65.25313 33.628124 64.94063ZM42.1125 66.55L41.003124 66.55L41.003124 62.815628Q41.003124 62.378128 40.940624 61.987503Q40.89375 61.581253 40.753124 61.362503Q40.6125 61.112503 40.33125 61.003128Q40.065624 60.878128 39.628124 60.878128Q39.175 60.878128 38.675 61.096878Q38.190624 61.315628 37.7375 61.659378L37.7375 66.55L36.628124 66.55L36.628124 60.003128L37.7375 60.003128L37.7375 60.737503Q38.253124 60.300003 38.8 60.065628Q39.346874 59.815628 39.940624 59.815628Q40.9875 59.815628 41.55 60.456253Q42.1125 61.096878 42.1125 62.300003L42.1125 66.55ZM49.721874 66.55L48.628124 66.55L48.628124 65.84688Q48.471874 65.95625 48.221874 66.14375Q47.9875 66.31563 47.753124 66.40938Q47.471874 66.55 47.1125 66.64375Q46.753124 66.7375 46.26875 66.7375Q45.39375 66.7375 44.76875 66.15938Q44.159374 65.56563 44.159374 64.64375Q44.159374 63.909378 44.471874 63.456253Q44.8 62.987503 45.39375 62.721878Q45.9875 62.456253 46.815624 62.362503Q47.659374 62.268753 48.628124 62.221878L48.628124 62.050003Q48.628124 61.675003 48.4875 61.440628Q48.3625 61.190628 48.1125 61.050003Q47.878124 60.909378 47.55 60.862503Q47.221874 60.815628 46.8625 60.815628Q46.440624 60.815628 45.89375 60.940628Q45.3625 61.050003 44.8 61.268753L44.7375 61.268753L44.7375 60.143753Q45.065624 60.050003 45.675 59.956253Q46.284374 59.846878 46.878124 59.846878Q47.565624 59.846878 48.08125 59.971878Q48.596874 60.081253 48.971874 60.346878Q49.33125 60.612503 49.51875 61.050003Q49.721874 61.471878 49.721874 62.112503L49.721874 66.55ZM48.628124 64.94063L48.628124 63.112503Q48.128124 63.143753 47.440624 63.206253Q46.753124 63.268753 46.3625 63.378128Q45.878124 63.503128 45.58125 63.800003Q45.3 64.08125 45.3 64.58125Q45.3 65.14375 45.628124 65.425Q45.971874 65.70625 46.675 65.70625Q47.253124 65.70625 47.7375 65.4875Q48.221874 65.25313 48.628124 64.94063ZM56.940624 65.8Q56.940624 67.47188 56.175 68.25313Q55.425 69.03438 53.8625 69.03438Q53.346874 69.03438 52.846874 68.95625Q52.346874 68.87813 51.8625 68.75313L51.8625 67.62813L51.925 67.62813Q52.190624 67.72188 52.76875 67.87813Q53.3625 68.03438 53.95625 68.03438Q54.51875 68.03438 54.878124 67.89375Q55.253124 67.76875 55.45625 67.53438Q55.659374 67.3 55.753124 66.97188Q55.846874 66.65938 55.846874 66.25313L55.846874 65.65938Q55.346874 66.05 54.89375 66.25313Q54.440624 66.45625 53.7375 66.45625Q52.565624 66.45625 51.878124 65.6125Q51.190624 64.75313 51.190624 63.221878Q51.190624 62.378128 51.425 61.768753Q51.659374 61.143753 52.065624 60.706253Q52.45625 60.284378 52.9875 60.050003Q53.534374 59.815628 54.08125 59.815628Q54.64375 59.815628 55.01875 59.940628Q55.409374 60.050003 55.846874 60.284378L55.909374 60.003128L56.940624 60.003128L56.940624 65.8ZM55.846874 64.75313L55.846874 61.175003Q55.409374 60.987503 55.01875 60.909378Q54.64375 60.815628 54.26875 60.815628Q53.3625 60.815628 52.83125 61.425003Q52.315624 62.034378 52.315624 63.190628Q52.315624 64.3 52.70625 64.8625Q53.096874 65.425 53.9875 65.425Q54.471874 65.425 54.95625 65.25313Q55.440624 65.06563 55.846874 64.75313ZM64.1125 63.393753L59.284374 63.393753Q59.284374 63.987503 59.471874 64.44063Q59.659374 64.89375 59.971874 65.175Q60.26875 65.45625 60.690624 65.59688Q61.1125 65.7375 61.6125 65.7375Q62.284374 65.7375 62.95625 65.47188Q63.64375 65.20625 63.925 64.95625L63.9875 64.95625L63.9875 66.14375Q63.425 66.37813 62.846874 66.55Q62.26875 66.70625 61.628124 66.70625Q60.003124 66.70625 59.08125 65.83125Q58.175 64.94063 58.175 63.315628Q58.175 61.706253 59.05 60.768753Q59.925 59.815628 61.346874 59.815628Q62.675 59.815628 63.39375 60.596878Q64.1125 61.362503 64.1125 62.800003L64.1125 63.393753ZM63.034374 62.550003Q63.034374 61.675003 62.596874 61.206253Q62.175 60.737503 61.3 60.737503Q60.409374 60.737503 59.878124 61.253128Q59.3625 61.768753 59.284374 62.550003L63.034374 62.550003ZM75.19063 66.55L74.08125 66.55L74.08125 62.815628Q74.08125 62.393753 74.03438 62.003128Q74.00313 61.612503 73.87813 61.378128Q73.75313 61.128128 73.50313 61.003128Q73.25313 60.878128 72.76875 60.878128Q72.31563 60.878128 71.84688 61.112503Q71.37813 61.331253 70.925 61.690628Q70.94063 61.831253 70.94063 62.018753Q70.95625 62.190628 70.95625 62.362503L70.95625 66.55L69.8625 66.55L69.8625 62.815628Q69.8625 62.393753 69.81563 62.003128Q69.78438 61.612503 69.65938 61.378128Q69.51875 61.128128 69.26875 61.003128Q69.01875 60.878128 68.55 60.878128Q68.09688 60.878128 67.64375 61.096878Q67.19063 61.315628 66.7375 61.659378L66.7375 66.55L65.62813 66.55L65.62813 60.003128L66.7375 60.003128L66.7375 60.737503Q67.25313 60.300003 67.76875 60.065628Q68.28438 59.815628 68.8625 59.815628Q69.51875 59.815628 69.9875 60.096878Q70.45625 60.378128 70.69063 60.878128Q71.34688 60.315628 71.89375 60.065628Q72.45625 59.815628 73.08125 59.815628Q74.15938 59.815628 74.675 60.471878Q75.19063 61.128128 75.19063 62.300003L75.19063 66.55ZM83.1125 63.393753L78.28438 63.393753Q78.28438 63.987503 78.47188 64.44063Q78.65938 64.89375 78.97188 65.175Q79.26875 65.45625 79.69063 65.59688Q80.1125 65.7375 80.6125 65.7375Q81.28438 65.7375 81.95625 65.47188Q82.64375 65.20625 82.925 64.95625L82.9875 64.95625L82.9875 66.14375Q82.425 66.37813 81.84688 66.55Q81.26875 66.70625 80.62813 66.70625Q79.00313 66.70625 78.08125 65.83125Q77.175 64.94063 77.175 63.315628Q77.175 61.706253 78.05 60.768753Q78.925 59.815628 80.34688 59.815628Q81.675 59.815628 82.39375 60.596878Q83.1125 61.362503 83.1125 62.800003L83.1125 63.393753ZM82.03438 62.550003Q82.03438 61.675003 81.59688 61.206253Q81.175 60.737503 80.3 60.737503Q79.40938 60.737503 78.87813 61.253128Q78.3625 61.768753 78.28438 62.550003L82.03438 62.550003ZM90.1125 66.55L89.00313 66.55L89.00313 62.815628Q89.00313 62.378128 88.94063 61.987503Q88.89375 61.581253 88.75313 61.362503Q88.6125 61.112503 88.33125 61.003128Q88.06563 60.878128 87.62813 60.878128Q87.175 60.878128 86.675 61.096878Q86.19063 61.315628 85.7375 61.659378L85.7375 66.55L84.62813 66.55L84.62813 60.003128L85.7375 60.003128L85.7375 60.737503Q86.25313 60.300003 86.8 60.065628Q87.34688 59.815628 87.94063 59.815628Q88.9875 59.815628 89.55 60.456253Q90.1125 61.096878 90.1125 62.300003L90.1125 66.55ZM96.03438 66.4875Q95.72188 66.58125 95.34688 66.62813Q94.9875 66.675 94.70625 66.675Q93.70625 66.675 93.175 66.14375Q92.65938 65.59688 92.65938 64.40938L92.65938 60.925003L91.90938 60.925003L91.90938 60.003128L92.65938 60.003128L92.65938 58.128128L93.75313 58.128128L93.75313 60.003128L96.03438 60.003128L96.03438 60.925003L93.75313 60.925003L93.75313 63.909378Q93.75313 64.425 93.76875 64.72188Q93.8 65.00313 93.94063 65.25313Q94.08125 65.4875 94.3 65.59688Q94.53438 65.70625 94.9875 65.70625Q95.25313 65.70625 95.55 65.62813Q95.84688 65.55 95.97188 65.50313L96.03438 65.50313L96.03438 66.4875Z" fill-rule="nonzero"/><path fill="#9e9e9e" d="M25.596874 83.09688L24.3 83.09688L24.3 85.55L23.175 85.55L23.175 83.09688L19.003124 83.09688L19.003124 81.75313L23.221874 76.83125L24.3 76.83125L24.3 82.15938L25.596874 82.15938L25.596874 83.09688ZM23.175 82.15938L23.175 78.22188L19.8 82.15938L23.175 82.15938ZM29.925 83.87813L28.26875 87.72188L27.409374 87.72188L28.425 83.87813L29.925 83.87813ZM37.596874 83.09688L36.3 83.09688L36.3 85.55L35.175 85.55L35.175 83.09688L31.003124 83.09688L31.003124 81.75313L35.221874 76.83125L36.3 76.83125L36.3 82.15938L37.596874 82.15938L37.596874 83.09688ZM35.175 82.15938L35.175 78.22188L31.8 82.15938L35.175 82.15938ZM43.7375 79.2375Q43.7375 80.55 43.175 81.19063Q42.628124 81.83125 41.58125 81.83125Q40.51875 81.83125 39.971874 81.19063Q39.425 80.55 39.425 79.25313Q39.425 77.94063 39.971874 77.3Q40.534374 76.65938 41.58125 76.65938Q42.64375 76.65938 43.190624 77.31563Q43.7375 77.95625 43.7375 79.2375ZM47.784374 76.83125L43.20625 85.55L42.2375 85.55L46.815624 76.83125L47.784374 76.83125ZM50.596874 83.12813Q50.596874 84.44063 50.034374 85.08125Q49.471874 85.72188 48.440624 85.72188Q47.378124 85.72188 46.83125 85.08125Q46.284374 84.425 46.284374 83.12813Q46.284374 81.81563 46.83125 81.19063Q47.39375 80.55 48.440624 80.55Q49.503124 80.55 50.05 81.19063Q50.596874 81.81563 50.596874 83.12813ZM42.690624 79.2375Q42.690624 78.2375 42.425 77.84688Q42.159374 77.44063 41.58125 77.44063Q40.9875 77.44063 40.721874 77.84688Q40.471874 78.2375 40.471874 79.25313Q40.471874 80.26875 40.721874 80.65938Q40.9875 81.05 41.58125 81.05Q42.159374 81.05 42.425 80.65938Q42.690624 80.26875 42.690624 79.2375ZM49.55 83.12813Q49.55 82.12813 49.284374 81.7375Q49.034374 81.33125 48.440624 81.33125Q47.846874 81.33125 47.58125 81.7375Q47.33125 82.12813 47.33125 83.12813Q47.33125 84.14375 47.58125 84.55Q47.846874 84.94063 48.440624 84.94063Q49.034374 84.94063 49.284374 84.55Q49.55 84.14375 49.55 83.12813Z" fill-rule="nonzero"/><path stroke="#757575" stroke-width="1.0" stroke-linecap="butt" d="M18.55 71.05L127.05 71.05L212.58623 53.1611" fill-rule="nonzero"/><path fill="#9e9e9e" d="M214.58623 53.1611C214.58623 52.056526 213.6908 51.1611 212.58623 51.1611C211.48166 51.1611 210.58623 52.056526 210.58623 53.1611C210.58623 54.265667 211.48166 55.1611 212.58623 55.1611C213.6908 55.1611 214.58623 54.265667 214.58623 53.1611" fill-rule="nonzero"/><path fill="#1a1a1a" d="M27.096874 191.76753Q27.096874 192.95503 26.565624 193.92378Q26.05 194.89253 25.190624 195.42378Q24.596874 195.79878 23.8625 195.97066Q23.128124 196.1269 21.925 196.1269L19.721874 196.1269L19.721874 187.40816L21.909374 187.40816Q23.175 187.40816 23.925 187.59566Q24.690624 187.76753 25.20625 188.09566Q26.096874 188.64253 26.596874 189.58003Q27.096874 190.5019 27.096874 191.76753ZM25.878124 191.7519Q25.878124 190.73628 25.51875 190.03316Q25.159374 189.33003 24.45625 188.92378Q23.940624 188.6269 23.3625 188.51753Q22.784374 188.39253 21.971874 188.39253L20.878124 188.39253L20.878124 195.1269L21.971874 195.1269Q22.815624 195.1269 23.440624 195.0019Q24.065624 194.8769 24.58125 194.54878Q25.2375 194.1269 25.55 193.45503Q25.878124 192.76753 25.878124 191.7519ZM34.20625 192.86128Q34.20625 194.45503 33.378124 195.39253Q32.565624 196.3144 31.190624 196.3144Q29.8 196.3144 28.9875 195.39253Q28.175 194.45503 28.175 192.86128Q28.175 191.2519 28.9875 190.33003Q29.8 189.39253 31.190624 189.39253Q32.565624 189.39253 33.378124 190.33003Q34.20625 191.2519 34.20625 192.86128ZM33.08125 192.86128Q33.08125 191.58003 32.58125 190.97066Q32.08125 190.34566 31.190624 190.34566Q30.3 190.34566 29.8 190.97066Q29.315624 191.58003 29.315624 192.86128Q29.315624 194.08003 29.8 194.72066Q30.3 195.36128 31.190624 195.36128Q32.08125 195.36128 32.58125 194.73628Q33.08125 194.09566 33.08125 192.86128ZM40.471874 195.72066Q39.925 195.98628 39.425 196.1269Q38.940624 196.26753 38.378124 196.26753Q37.675 196.26753 37.08125 196.0644Q36.4875 195.86128 36.065624 195.4394Q35.628124 195.01753 35.39375 194.3769Q35.159374 193.72066 35.159374 192.86128Q35.159374 191.2519 36.034374 190.34566Q36.925 189.42378 38.378124 189.42378Q38.940624 189.42378 39.471874 189.59566Q40.01875 189.7519 40.471874 189.97066L40.471874 191.20503L40.409374 191.20503Q39.909374 190.79878 39.378124 190.59566Q38.846874 190.3769 38.33125 190.3769Q37.39375 190.3769 36.846874 191.01753Q36.315624 191.64253 36.315624 192.86128Q36.315624 194.04878 36.83125 194.6894Q37.3625 195.3144 38.33125 195.3144Q38.659374 195.3144 39.003124 195.23628Q39.3625 195.14253 39.628124 195.0019Q39.878124 194.8769 40.08125 194.73628Q40.3 194.59566 40.409374 194.5019L40.471874 194.5019L40.471874 195.72066ZM47.065624 196.1269L45.95625 196.1269L45.95625 195.39253Q45.409374 195.84566 44.89375 196.08003Q44.378124 196.3144 43.76875 196.3144Q42.7375 196.3144 42.159374 195.6894Q41.58125 195.04878 41.58125 193.83003L41.58125 189.58003L42.690624 189.58003L42.690624 193.3144Q42.690624 193.79878 42.7375 194.15816Q42.784374 194.51753 42.940624 194.76753Q43.096874 195.01753 43.346874 195.14253Q43.596874 195.2519 44.08125 195.2519Q44.503124 195.2519 45.003124 195.03316Q45.51875 194.8144 45.95625 194.47066L45.95625 189.58003L47.065624 189.58003L47.065624 196.1269ZM59.190624 196.1269L58.08125 196.1269L58.08125 192.39253Q58.08125 191.97066 58.034374 191.58003Q58.003124 191.1894 57.878124 190.95503Q57.753124 190.70503 57.503124 190.58003Q57.253124 190.45503 56.76875 190.45503Q56.315624 190.45503 55.846874 190.6894Q55.378124 190.90816 54.925 191.26753Q54.940624 191.40816 54.940624 191.59566Q54.95625 191.76753 54.95625 191.9394L54.95625 196.1269L53.8625 196.1269L53.8625 192.39253Q53.8625 191.97066 53.815624 191.58003Q53.784374 191.1894 53.659374 190.95503Q53.51875 190.70503 53.26875 190.58003Q53.01875 190.45503 52.55 190.45503Q52.096874 190.45503 51.64375 190.67378Q51.190624 190.89253 50.7375 191.23628L50.7375 196.1269L49.628124 196.1269L49.628124 189.58003L50.7375 189.58003L50.7375 190.3144Q51.253124 189.8769 51.76875 189.64253Q52.284374 189.39253 52.8625 189.39253Q53.51875 189.39253 53.9875 189.67378Q54.45625 189.95503 54.690624 190.45503Q55.346874 189.89253 55.89375 189.64253Q56.45625 189.39253 57.08125 189.39253Q58.159374 189.39253 58.675 190.04878Q59.190624 190.70503 59.190624 191.8769L59.190624 196.1269ZM67.1125 192.97066L62.284374 192.97066Q62.284374 193.5644 62.471874 194.01753Q62.659374 194.47066 62.971874 194.7519Q63.26875 195.03316 63.690624 195.17378Q64.1125 195.3144 64.6125 195.3144Q65.28438 195.3144 65.95625 195.04878Q66.64375 194.78316 66.925 194.53316L66.9875 194.53316L66.9875 195.72066Q66.425 195.95503 65.84688 196.1269Q65.26875 196.28316 64.62813 196.28316Q63.003124 196.28316 62.08125 195.40816Q61.175 194.51753 61.175 192.89253Q61.175 191.28316 62.05 190.34566Q62.925 189.39253 64.34688 189.39253Q65.675 189.39253 66.39375 190.17378Q67.1125 190.9394 67.1125 192.3769L67.1125 192.97066ZM66.03438 192.1269Q66.03438 191.2519 65.59688 190.78316Q65.175 190.3144 64.3 190.3144Q63.409374 190.3144 62.878124 190.83003Q62.3625 191.34566 62.284374 192.1269L66.03438 192.1269ZM74.1125 196.1269L73.00313 196.1269L73.00313 192.39253Q73.00313 191.95503 72.94063 191.5644Q72.89375 191.15816 72.75313 190.9394Q72.6125 190.6894 72.33125 190.58003Q72.06563 190.45503 71.62813 190.45503Q71.175 190.45503 70.675 190.67378Q70.19063 190.89253 69.7375 191.23628L69.7375 196.1269L68.62813 196.1269L68.62813 189.58003L69.7375 189.58003L69.7375 190.3144Q70.25313 189.8769 70.8 189.64253Q71.34688 189.39253 71.94063 189.39253Q72.9875 189.39253 73.55 190.03316Q74.1125 190.67378 74.1125 191.8769L74.1125 196.1269ZM80.03438 196.0644Q79.72188 196.15816 79.34688 196.20503Q78.9875 196.2519 78.70625 196.2519Q77.70625 196.2519 77.175 195.72066Q76.65938 195.17378 76.65938 193.98628L76.65938 190.5019L75.90938 190.5019L75.90938 189.58003L76.65938 189.58003L76.65938 187.70503L77.75313 187.70503L77.75313 189.58003L80.03438 189.58003L80.03438 190.5019L77.75313 190.5019L77.75313 193.48628Q77.75313 194.0019 77.76875 194.29878Q77.8 194.58003 77.94063 194.83003Q78.08125 195.0644 78.3 195.17378Q78.53438 195.28316 78.9875 195.28316Q79.25313 195.28316 79.55 195.20503Q79.84688 195.1269 79.97188 195.08003L80.03438 195.08003L80.03438 196.0644ZM86.72188 196.1269L85.62813 196.1269L85.62813 195.42378Q85.47188 195.53316 85.22188 195.72066Q84.9875 195.89253 84.75313 195.98628Q84.47188 196.1269 84.1125 196.22066Q83.75313 196.3144 83.26875 196.3144Q82.39375 196.3144 81.76875 195.73628Q81.15938 195.14253 81.15938 194.22066Q81.15938 193.48628 81.47188 193.03316Q81.8 192.5644 82.39375 192.29878Q82.9875 192.03316 83.81563 191.9394Q84.65938 191.84566 85.62813 191.79878L85.62813 191.6269Q85.62813 191.2519 85.4875 191.01753Q85.3625 190.76753 85.1125 190.6269Q84.87813 190.48628 84.55 190.4394Q84.22188 190.39253 83.8625 190.39253Q83.44063 190.39253 82.89375 190.51753Q82.3625 190.6269 81.8 190.84566L81.7375 190.84566L81.7375 189.72066Q82.06563 189.6269 82.675 189.53316Q83.28438 189.42378 83.87813 189.42378Q84.56563 189.42378 85.08125 189.54878Q85.59688 189.65816 85.97188 189.92378Q86.33125 190.1894 86.51875 190.6269Q86.72188 191.04878 86.72188 191.6894L86.72188 196.1269ZM85.62813 194.51753L85.62813 192.6894Q85.12813 192.72066 84.44063 192.78316Q83.75313 192.84566 83.3625 192.95503Q82.87813 193.08003 82.58125 193.3769Q82.3 193.65816 82.3 194.15816Q82.3 194.72066 82.62813 195.0019Q82.97188 195.28316 83.675 195.28316Q84.25313 195.28316 84.7375 195.0644Q85.22188 194.83003 85.62813 194.51753ZM92.03438 196.0644Q91.72188 196.15816 91.34688 196.20503Q90.9875 196.2519 90.70625 196.2519Q89.70625 196.2519 89.175 195.72066Q88.65938 195.17378 88.65938 193.98628L88.65938 190.5019L87.90938 190.5019L87.90938 189.58003L88.65938 189.58003L88.65938 187.70503L89.75313 187.70503L89.75313 189.58003L92.03438 189.58003L92.03438 190.5019L89.75313 190.5019L89.75313 193.48628Q89.75313 194.0019 89.76875 194.29878Q89.8 194.58003 89.94063 194.83003Q90.08125 195.0644 90.3 195.17378Q90.53438 195.28316 90.9875 195.28316Q91.25313 195.28316 91.55 195.20503Q91.84688 195.1269 91.97188 195.08003L92.03438 195.08003L92.03438 196.0644ZM94.81563 188.48628L93.58125 188.48628L93.58125 187.34566L94.81563 187.34566L94.81563 188.48628ZM94.75313 196.1269L93.64375 196.1269L93.64375 189.58003L94.75313 189.58003L94.75313 196.1269ZM102.20625 192.86128Q102.20625 194.45503 101.37813 195.39253Q100.56563 196.3144 99.19063 196.3144Q97.8 196.3144 96.9875 195.39253Q96.175 194.45503 96.175 192.86128Q96.175 191.2519 96.9875 190.33003Q97.8 189.39253 99.19063 189.39253Q100.56563 189.39253 101.37813 190.33003Q102.20625 191.2519 102.20625 192.86128ZM101.08125 192.86128Q101.08125 191.58003 100.58125 190.97066Q100.08125 190.34566 99.19063 190.34566Q98.3 190.34566 97.8 190.97066Q97.31563 191.58003 97.31563 192.86128Q97.31563 194.08003 97.8 194.72066Q98.3 195.36128 99.19063 195.36128Q100.08125 195.36128 100.58125 194.73628Q101.08125 194.09566 101.08125 192.86128ZM109.1125 196.1269L108.00313 196.1269L108.00313 192.39253Q108.00313 191.95503 107.94063 191.5644Q107.89375 191.15816 107.75313 190.9394Q107.6125 190.6894 107.33125 190.58003Q107.06563 190.45503 106.62813 190.45503Q106.175 190.45503 105.675 190.67378Q105.19063 190.89253 104.7375 191.23628L104.7375 196.1269L103.62813 196.1269L103.62813 189.58003L104.7375 189.58003L104.7375 190.3144Q105.25313 189.8769 105.8 189.64253Q106.34688 189.39253 106.94063 189.39253Q107.9875 189.39253 108.55 190.03316Q109.1125 190.67378 109.1125 191.8769L109.1125 196.1269Z" fill-rule="nonzero"/><path fill="#9e9e9e" d="M24.628124 210.92378Q24.909374 211.17378 25.096874 211.5644Q25.284374 211.9394 25.284374 212.54878Q25.284374 213.14253 25.065624 213.64253Q24.846874 214.14253 24.45625 214.5019Q24.01875 214.90816 23.409374 215.11128Q22.815624 215.3144 22.1125 215.3144Q21.39375 215.3144 20.690624 215.1269Q19.9875 214.95503 19.534374 214.7519L19.534374 213.53316L19.6125 213.53316Q20.1125 213.86128 20.784374 214.08003Q21.45625 214.29878 22.096874 214.29878Q22.45625 214.29878 22.8625 214.17378Q23.284374 214.04878 23.55 213.8144Q23.815624 213.54878 23.940624 213.23628Q24.08125 212.92378 24.08125 212.45503Q24.08125 211.98628 23.925 211.6894Q23.784374 211.3769 23.51875 211.1894Q23.253124 211.01753 22.878124 210.95503Q22.503124 210.8769 22.065624 210.8769L21.55 210.8769L21.55 209.90816L21.95625 209.90816Q22.846874 209.90816 23.378124 209.53316Q23.909374 209.15816 23.909374 208.4394Q23.909374 208.1269 23.76875 207.89253Q23.64375 207.65816 23.39375 207.5019Q23.14375 207.34566 22.846874 207.29878Q22.565624 207.23628 22.20625 207.23628Q21.64375 207.23628 21.01875 207.4394Q20.39375 207.6269 19.846874 208.0019L19.784374 208.0019L19.784374 206.76753Q20.190624 206.5644 20.878124 206.39253Q21.58125 206.22066 22.2375 206.22066Q22.878124 206.22066 23.3625 206.34566Q23.846874 206.45503 24.2375 206.70503Q24.659374 206.98628 24.878124 207.39253Q25.096874 207.78316 25.096874 208.33003Q25.096874 209.04878 24.58125 209.59566Q24.065624 210.1269 23.378124 210.26753L23.378124 210.36128Q23.659374 210.40816 24.01875 210.5644Q24.378124 210.70503 24.628124 210.92378ZM33.39375 210.76753Q33.39375 213.11128 32.659374 214.22066Q31.925 215.3144 30.378124 215.3144Q28.8 215.3144 28.065624 214.20503Q27.346874 213.08003 27.346874 210.76753Q27.346874 208.4394 28.08125 207.33003Q28.815624 206.22066 30.378124 206.22066Q31.940624 206.22066 32.659374 207.36128Q33.39375 208.48628 33.39375 210.76753ZM31.846874 213.42378Q32.05 212.9394 32.128124 212.29878Q32.20625 211.65816 32.20625 210.76753Q32.20625 209.8769 32.128124 209.22066Q32.05 208.5644 31.846874 208.09566Q31.64375 207.64253 31.284374 207.42378Q30.925 207.1894 30.378124 207.1894Q29.815624 207.1894 29.45625 207.42378Q29.096874 207.64253 28.89375 208.11128Q28.690624 208.54878 28.6125 209.2519Q28.55 209.9394 28.55 210.76753Q28.55 211.6894 28.6125 212.3144Q28.675 212.92378 28.878124 213.40816Q29.08125 213.86128 29.425 214.11128Q29.784374 214.34566 30.378124 214.34566Q30.925 214.34566 31.284374 214.11128Q31.64375 213.8769 31.846874 213.42378ZM37.925 213.45503L36.26875 217.29878L35.409374 217.29878L36.425 213.45503L37.925 213.45503ZM44.909374 215.1269L40.175 215.1269L40.175 214.23628L42.003124 214.23628L42.003124 208.39253L40.175 208.39253L40.175 207.59566Q40.55 207.59566 40.971874 207.53316Q41.39375 207.47066 41.6125 207.34566Q41.878124 207.20503 42.034374 206.98628Q42.190624 206.7519 42.20625 206.3769L43.128124 206.3769L43.128124 214.23628L44.909374 214.23628L44.909374 215.1269ZM51.7375 208.8144Q51.7375 210.1269 51.175 210.76753Q50.628124 211.40816 49.58125 211.40816Q48.51875 211.40816 47.971874 210.76753Q47.425 210.1269 47.425 208.83003Q47.425 207.51753 47.971874 206.8769Q48.534374 206.23628 49.58125 206.23628Q50.64375 206.23628 51.190624 206.89253Q51.7375 207.53316 51.7375 208.8144ZM55.784374 206.40816L51.20625 215.1269L50.2375 215.1269L54.815624 206.40816L55.784374 206.40816ZM58.596874 212.70503Q58.596874 214.01753 58.034374 214.65816Q57.471874 215.29878 56.440624 215.29878Q55.378124 215.29878 54.83125 214.65816Q54.284374 214.0019 54.284374 212.70503Q54.284374 211.39253 54.83125 210.76753Q55.39375 210.1269 56.440624 210.1269Q57.503124 210.1269 58.05 210.76753Q58.596874 211.39253 58.596874 212.70503ZM50.690624 208.8144Q50.690624 207.8144 50.425 207.42378Q50.159374 207.01753 49.58125 207.01753Q48.9875 207.01753 48.721874 207.42378Q48.471874 207.8144 48.471874 208.83003Q48.471874 209.84566 48.721874 210.23628Q48.9875 210.6269 49.58125 210.6269Q50.159374 210.6269 50.425 210.23628Q50.690624 209.84566 50.690624 208.8144ZM57.55 212.70503Q57.55 211.70503 57.284374 211.3144Q57.034374 210.90816 56.440624 210.90816Q55.846874 210.90816 55.58125 211.3144Q55.33125 211.70503 55.33125 212.70503Q55.33125 213.72066 55.58125 214.1269Q55.846874 214.51753 56.440624 214.51753Q57.034374 214.51753 57.284374 214.1269Q57.55 213.72066 57.55 212.70503Z" fill-rule="nonzero"/><path stroke="#757575" stroke-width="1.0" stroke-linecap="butt" d="M18.55 200.6269L127.05 200.6269L142.12051 200.6269" fill-rule="nonzero"/><path fill="#9e9e9e" d="M144.12051 200.6269C144.12051 199.52234 143.2251 198.6269 142.12051 198.6269C141.01595 198.6269 140.12051 199.52234 140.12051 200.6269C140.12051 201.73148 141.01595 202.6269 142.12051 202.6269C143.2251 202.6269 144.12051 201.73148 144.12051 200.6269" fill-rule="nonzero"/><path fill="#1a1a1a" d="M25.940624 319.8421L22.83125 319.8421L22.83125 327.5296L21.675 327.5296L21.675 319.8421L18.55 319.8421L18.55 318.81085L25.940624 318.81085L25.940624 319.8421ZM32.1125 324.37335L27.284374 324.37335Q27.284374 324.9671 27.471874 325.42023Q27.659374 325.87335 27.971874 326.1546Q28.26875 326.43585 28.690624 326.57648Q29.1125 326.7171 29.6125 326.7171Q30.284374 326.7171 30.95625 326.45148Q31.64375 326.18585 31.925 325.93585L31.9875 325.93585L31.9875 327.12335Q31.425 327.35773 30.846874 327.5296Q30.26875 327.68585 29.628124 327.68585Q28.003124 327.68585 27.08125 326.81085Q26.175 325.92023 26.175 324.29523Q26.175 322.68585 27.05 321.74835Q27.925 320.79523 29.346874 320.79523Q30.675 320.79523 31.39375 321.57648Q32.1125 322.3421 32.1125 323.7796L32.1125 324.37335ZM31.034374 323.5296Q31.034374 322.6546 30.596874 322.18585Q30.175 321.7171 29.3 321.7171Q28.409374 321.7171 27.878124 322.23273Q27.3625 322.74835 27.284374 323.5296L31.034374 323.5296ZM38.315624 325.63898Q38.315624 326.54523 37.565624 327.12335Q36.83125 327.68585 35.55 327.68585Q34.815624 327.68585 34.20625 327.51398Q33.6125 327.3421 33.190624 327.13898L33.190624 325.9046L33.253124 325.9046Q33.76875 326.29523 34.409374 326.5296Q35.05 326.74835 35.64375 326.74835Q36.3625 326.74835 36.76875 326.51398Q37.190624 326.2796 37.190624 325.7796Q37.190624 325.38898 36.95625 325.20148Q36.7375 324.99835 36.1125 324.85773Q35.878124 324.81085 35.4875 324.74835Q35.1125 324.67023 34.8 324.57648Q33.940624 324.35773 33.58125 323.92023Q33.221874 323.4671 33.221874 322.82648Q33.221874 322.42023 33.39375 322.06085Q33.565624 321.70148 33.89375 321.42023Q34.221874 321.1546 34.721874 320.99835Q35.2375 320.82648 35.8625 320.82648Q36.45625 320.82648 37.05 320.9671Q37.659374 321.10773 38.05 321.31085L38.05 322.49835L37.9875 322.49835Q37.565624 322.18585 36.95625 321.98273Q36.3625 321.76398 35.784374 321.76398Q35.175 321.76398 34.753124 321.99835Q34.346874 322.2171 34.346874 322.67023Q34.346874 323.07648 34.596874 323.2796Q34.846874 323.49835 35.39375 323.62335Q35.70625 323.68585 36.08125 323.76398Q36.45625 323.82648 36.70625 323.88898Q37.471874 324.06085 37.89375 324.49835Q38.315624 324.92023 38.315624 325.63898ZM43.034374 327.4671Q42.721874 327.56085 42.346874 327.60773Q41.9875 327.6546 41.70625 327.6546Q40.70625 327.6546 40.175 327.12335Q39.659374 326.57648 39.659374 325.38898L39.659374 321.9046L38.909374 321.9046L38.909374 320.98273L39.659374 320.98273L39.659374 319.10773L40.753124 319.10773L40.753124 320.98273L43.034374 320.98273L43.034374 321.9046L40.753124 321.9046L40.753124 324.88898Q40.753124 325.4046 40.76875 325.70148Q40.8 325.98273 40.940624 326.23273Q41.08125 326.4671 41.3 326.57648Q41.534374 326.68585 41.9875 326.68585Q42.253124 326.68585 42.55 326.60773Q42.846874 326.5296 42.971874 326.48273L43.034374 326.48273L43.034374 327.4671ZM45.815624 319.88898L44.58125 319.88898L44.58125 318.74835L45.815624 318.74835L45.815624 319.88898ZM45.753124 327.5296L44.64375 327.5296L44.64375 320.98273L45.753124 320.98273L45.753124 327.5296ZM53.1125 327.5296L52.003124 327.5296L52.003124 323.79523Q52.003124 323.35773 51.940624 322.9671Q51.89375 322.56085 51.753124 322.3421Q51.6125 322.0921 51.33125 321.98273Q51.065624 321.85773 50.628124 321.85773Q50.175 321.85773 49.675 322.07648Q49.190624 322.29523 48.7375 322.63898L48.7375 327.5296L47.628124 327.5296L47.628124 320.98273L48.7375 320.98273L48.7375 321.7171Q49.253124 321.2796 49.8 321.04523Q50.346874 320.79523 50.940624 320.79523Q51.9875 320.79523 52.55 321.43585Q53.1125 322.07648 53.1125 323.2796L53.1125 327.5296ZM60.940624 326.7796Q60.940624 328.45148 60.175 329.23273Q59.425 330.01398 57.8625 330.01398Q57.346874 330.01398 56.846874 329.93585Q56.346874 329.85773 55.8625 329.73273L55.8625 328.60773L55.925 328.60773Q56.190624 328.70148 56.76875 328.85773Q57.3625 329.01398 57.95625 329.01398Q58.51875 329.01398 58.878124 328.87335Q59.253124 328.74835 59.45625 328.51398Q59.659374 328.2796 59.753124 327.95148Q59.846874 327.63898 59.846874 327.23273L59.846874 326.63898Q59.346874 327.0296 58.89375 327.23273Q58.440624 327.43585 57.7375 327.43585Q56.565624 327.43585 55.878124 326.5921Q55.190624 325.73273 55.190624 324.20148Q55.190624 323.35773 55.425 322.74835Q55.659374 322.12335 56.065624 321.68585Q56.45625 321.26398 56.9875 321.0296Q57.534374 320.79523 58.08125 320.79523Q58.64375 320.79523 59.01875 320.92023Q59.409374 321.0296 59.846874 321.26398L59.909374 320.98273L60.940624 320.98273L60.940624 326.7796ZM59.846874 325.73273L59.846874 322.1546Q59.409374 321.9671 59.01875 321.88898Q58.64375 321.79523 58.26875 321.79523Q57.3625 321.79523 56.83125 322.4046Q56.315624 323.01398 56.315624 324.17023Q56.315624 325.2796 56.70625 325.8421Q57.096874 326.4046 57.9875 326.4046Q58.471874 326.4046 58.95625 326.23273Q59.440624 326.04523 59.846874 325.73273Z" fill-rule="nonzero"/><path fill="#9e9e9e" d="M25.596874 344.07648L24.3 344.07648L24.3 346.5296L23.175 346.5296L23.175 344.07648L19.003124 344.07648L19.003124 342.73273L23.221874 337.81085L24.3 337.81085L24.3 343.13898L25.596874 343.13898L25.596874 344.07648ZM23.175 343.13898L23.175 339.20148L19.8 343.13898L23.175 343.13898ZM29.925 344.85773L28.26875 348.70148L27.409374 348.70148L28.425 344.85773L29.925 344.85773ZM37.596874 344.07648L36.3 344.07648L36.3 346.5296L35.175 346.5296L35.175 344.07648L31.003124 344.07648L31.003124 342.73273L35.221874 337.81085L36.3 337.81085L36.3 343.13898L37.596874 343.13898L37.596874 344.07648ZM35.175 343.13898L35.175 339.20148L31.8 343.13898L35.175 343.13898ZM43.7375 340.2171Q43.7375 341.5296 43.175 342.17023Q42.628124 342.81085 41.58125 342.81085Q40.51875 342.81085 39.971874 342.17023Q39.425 341.5296 39.425 340.23273Q39.425 338.92023 39.971874 338.2796Q40.534374 337.63898 41.58125 337.63898Q42.64375 337.63898 43.190624 338.29523Q43.7375 338.93585 43.7375 340.2171ZM47.784374 337.81085L43.20625 346.5296L42.2375 346.5296L46.815624 337.81085L47.784374 337.81085ZM50.596874 344.10773Q50.596874 345.42023 50.034374 346.06085Q49.471874 346.70148 48.440624 346.70148Q47.378124 346.70148 46.83125 346.06085Q46.284374 345.4046 46.284374 344.10773Q46.284374 342.79523 46.83125 342.17023Q47.39375 341.5296 48.440624 341.5296Q49.503124 341.5296 50.05 342.17023Q50.596874 342.79523 50.596874 344.10773ZM42.690624 340.2171Q42.690624 339.2171 42.425 338.82648Q42.159374 338.42023 41.58125 338.42023Q40.9875 338.42023 40.721874 338.82648Q40.471874 339.2171 40.471874 340.23273Q40.471874 341.24835 40.721874 341.63898Q40.9875 342.0296 41.58125 342.0296Q42.159374 342.0296 42.425 341.63898Q42.690624 341.24835 42.690624 340.2171ZM49.55 344.10773Q49.55 343.10773 49.284374 342.7171Q49.034374 342.31085 48.440624 342.31085Q47.846874 342.31085 47.58125 342.7171Q47.33125 343.10773 47.33125 344.10773Q47.33125 345.12335 47.58125 345.5296Q47.846874 345.92023 48.440624 345.92023Q49.034374 345.92023 49.284374 345.5296Q49.55 345.12335 49.55 344.10773Z" fill-rule="nonzero"/><path stroke="#757575" stroke-width="1.0" stroke-linecap="butt" d="M18.55 332.0296L127.05 332.0296L239.30545 332.0296" fill-rule="nonzero"/><path fill="#9e9e9e" d="M241.30545 332.0296C241.30545 330.92505 240.41002 330.0296 239.30545 330.0296C238.20088 330.0296 237.30545 330.92505 237.30545 332.0296C237.30545 333.1342 238.20088 334.0296 239.30545 334.0296C240.41002 334.0296 241.30545 333.1342 241.30545 332.0296" fill-rule="nonzero"/><path fill="#1a1a1a" d="M549.9969 27.190624Q549.9969 28.378124 549.46564 29.346874Q548.95 30.315624 548.09064 30.846874Q547.4969 31.221874 546.7625 31.39375Q546.02814 31.55 544.825 31.55L542.6219 31.55L542.6219 22.83125L544.8094 22.83125Q546.075 22.83125 546.825 23.01875Q547.59064 23.190624 548.10626 23.51875Q548.9969 24.065624 549.4969 25.003124Q549.9969 25.925 549.9969 27.190624ZM548.77814 27.175Q548.77814 26.159374 548.41876 25.45625Q548.0594 24.753124 547.35626 24.346874Q546.84064 24.05 546.2625 23.940624Q545.6844 23.815624 544.8719 23.815624L543.77814 23.815624L543.77814 30.55L544.8719 30.55Q545.71564 30.55 546.34064 30.425Q546.96564 30.3 547.48126 29.971874Q548.1375 29.55 548.45 28.878124Q548.77814 28.190624 548.77814 27.175ZM557.0125 28.39375L552.1844 28.39375Q552.1844 28.9875 552.3719 29.440624Q552.5594 29.89375 552.8719 30.175Q553.16876 30.45625 553.59064 30.596874Q554.0125 30.7375 554.5125 30.7375Q555.1844 30.7375 555.85626 30.471874Q556.54376 30.20625 556.825 29.95625L556.8875 29.95625L556.8875 31.14375Q556.325 31.378124 555.7469 31.55Q555.16876 31.70625 554.52814 31.70625Q552.90314 31.70625 551.98126 30.83125Q551.075 29.940624 551.075 28.315624Q551.075 26.70625 551.95 25.76875Q552.825 24.815624 554.2469 24.815624Q555.575 24.815624 556.29376 25.596874Q557.0125 26.3625 557.0125 27.8L557.0125 28.39375ZM555.9344 27.55Q555.9344 26.675 555.4969 26.20625Q555.075 25.7375 554.2 25.7375Q553.3094 25.7375 552.77814 26.253124Q552.2625 26.76875 552.1844 27.55L555.9344 27.55ZM563.21564 29.659374Q563.21564 30.565624 562.46564 31.14375Q561.73126 31.70625 560.45 31.70625Q559.71564 31.70625 559.10626 31.534374Q558.5125 31.3625 558.09064 31.159374L558.09064 29.925L558.15314 29.925Q558.66876 30.315624 559.3094 30.55Q559.95 30.76875 560.54376 30.76875Q561.2625 30.76875 561.66876 30.534374Q562.09064 30.3 562.09064 29.8Q562.09064 29.409374 561.85626 29.221874Q561.6375 29.01875 561.0125 28.878124Q560.77814 28.83125 560.3875 28.76875Q560.0125 28.690624 559.7 28.596874Q558.84064 28.378124 558.48126 27.940624Q558.1219 27.4875 558.1219 26.846874Q558.1219 26.440624 558.29376 26.08125Q558.46564 25.721874 558.79376 25.440624Q559.1219 25.175 559.6219 25.01875Q560.1375 24.846874 560.7625 24.846874Q561.35626 24.846874 561.95 24.9875Q562.5594 25.128124 562.95 25.33125L562.95 26.51875L562.8875 26.51875Q562.46564 26.20625 561.85626 26.003124Q561.2625 25.784374 560.6844 25.784374Q560.075 25.784374 559.65314 26.01875Q559.2469 26.2375 559.2469 26.690624Q559.2469 27.096874 559.4969 27.3Q559.7469 27.51875 560.29376 27.64375Q560.60626 27.70625 560.98126 27.784374Q561.35626 27.846874 561.60626 27.909374Q562.3719 28.08125 562.79376 28.51875Q563.21564 28.940624 563.21564 29.659374ZM565.71564 23.909374L564.48126 23.909374L564.48126 22.76875L565.71564 22.76875L565.71564 23.909374ZM565.65314 31.55L564.54376 31.55L564.54376 25.003124L565.65314 25.003124L565.65314 31.55ZM572.84064 30.8Q572.84064 32.471874 572.075 33.253124Q571.325 34.034374 569.7625 34.034374Q569.2469 34.034374 568.7469 33.95625Q568.2469 33.878124 567.7625 33.753124L567.7625 32.628124L567.825 32.628124Q568.09064 32.721874 568.66876 32.878124Q569.2625 33.034374 569.85626 33.034374Q570.41876 33.034374 570.77814 32.89375Q571.15314 32.76875 571.35626 32.534374Q571.5594 32.3 571.65314 31.971874Q571.7469 31.659374 571.7469 31.253124L571.7469 30.659374Q571.2469 31.05 570.79376 31.253124Q570.34064 31.45625 569.6375 31.45625Q568.46564 31.45625 567.77814 30.6125Q567.09064 29.753124 567.09064 28.221874Q567.09064 27.378124 567.325 26.76875Q567.5594 26.14375 567.96564 25.70625Q568.35626 25.284374 568.8875 25.05Q569.4344 24.815624 569.98126 24.815624Q570.54376 24.815624 570.91876 24.940624Q571.3094 25.05 571.7469 25.284374L571.8094 25.003124L572.84064 25.003124L572.84064 30.8ZM571.7469 29.753124L571.7469 26.175Q571.3094 25.9875 570.91876 25.909374Q570.54376 25.815624 570.16876 25.815624Q569.2625 25.815624 568.73126 26.425Q568.21564 27.034374 568.21564 28.190624Q568.21564 29.3 568.60626 29.8625Q568.9969 30.425 569.8875 30.425Q570.3719 30.425 570.85626 30.253124Q571.34064 30.065624 571.7469 29.753124ZM580.0125 31.55L578.90314 31.55L578.90314 27.815624Q578.90314 27.378124 578.84064 26.9875Q578.79376 26.58125 578.65314 26.3625Q578.5125 26.1125 578.23126 26.003124Q577.96564 25.878124 577.52814 25.878124Q577.075 25.878124 576.575 26.096874Q576.09064 26.315624 575.6375 26.659374L575.6375 31.55L574.52814 31.55L574.52814 25.003124L575.6375 25.003124L575.6375 25.7375Q576.15314 25.3 576.7 25.065624Q577.2469 24.815624 577.84064 24.815624Q578.8875 24.815624 579.45 25.45625Q580.0125 26.096874 580.0125 27.3L580.0125 31.55Z" fill-rule="nonzero"/><path fill="#9e9e9e" d="M555.4969 48.096874L554.2 48.096874L554.2 50.55L553.075 50.55L553.075 48.096874L548.90314 48.096874L548.90314 46.753124L553.1219 41.83125L554.2 41.83125L554.2 47.159374L555.4969 47.159374L555.4969 48.096874ZM553.075 47.159374L553.075 43.221874L549.7 47.159374L553.075 47.159374ZM559.825 48.878124L558.16876 52.721874L557.3094 52.721874L558.325 48.878124L559.825 48.878124ZM567.4969 48.096874L566.2 48.096874L566.2 50.55L565.075 50.55L565.075 48.096874L560.90314 48.096874L560.90314 46.753124L565.1219 41.83125L566.2 41.83125L566.2 47.159374L567.4969 47.159374L567.4969 48.096874ZM565.075 47.159374L565.075 43.221874L561.7 47.159374L565.075 47.159374ZM573.6375 44.2375Q573.6375 45.55 573.075 46.190624Q572.52814 46.83125 571.48126 46.83125Q570.41876 46.83125 569.8719 46.190624Q569.325 45.55 569.325 44.253124Q569.325 42.940624 569.8719 42.3Q570.4344 41.659374 571.48126 41.659374Q572.54376 41.659374 573.09064 42.315624Q573.6375 42.95625 573.6375 44.2375ZM577.6844 41.83125L573.10626 50.55L572.1375 50.55L576.71564 41.83125L577.6844 41.83125ZM580.4969 48.128124Q580.4969 49.440624 579.9344 50.08125Q579.3719 50.721874 578.34064 50.721874Q577.27814 50.721874 576.73126 50.08125Q576.1844 49.425 576.1844 48.128124Q576.1844 46.815624 576.73126 46.190624Q577.29376 45.55 578.34064 45.55Q579.40314 45.55 579.95 46.190624Q580.4969 46.815624 580.4969 48.128124ZM572.59064 44.2375Q572.59064 43.2375 572.325 42.846874Q572.0594 42.440624 571.48126 42.440624Q570.8875 42.440624 570.6219 42.846874Q570.3719 43.2375 570.3719 44.253124Q570.3719 45.26875 570.6219 45.659374Q570.8875 46.05 571.48126 46.05Q572.0594 46.05 572.325 45.659374Q572.59064 45.26875 572.59064 44.2375ZM579.45 48.128124Q579.45 47.128124 579.1844 46.7375Q578.9344 46.33125 578.34064 46.33125Q577.7469 46.33125 577.48126 46.7375Q577.23126 47.128124 577.23126 48.128124Q577.23126 49.14375 577.48126 49.55Q577.7469 49.940624 578.34064 49.940624Q578.9344 49.940624 579.1844 49.55Q579.45 49.14375 579.45 48.128124Z" fill-rule="nonzero"/><path stroke="#757575" stroke-width="1.0" stroke-linecap="butt" d="M581.45 36.05L472.95 36.05L331.76688 30.111393" fill-rule="nonzero"/><path fill="#9e9e9e" d="M333.76688 30.111393C333.76688 29.006823 332.87143 28.111393 331.76688 28.111393C330.6623 28.111393 329.76688 29.006823 329.76688 30.111393C329.76688 31.215961 330.6623 32.111393 331.76688 32.111393C332.87143 32.111393 333.76688 31.215961 333.76688 30.111393" fill-rule="nonzero"/><path fill="#1a1a1a" d="M549.35626 226.8018Q549.04376 226.94243 548.77814 227.06743Q548.5125 227.19243 548.09064 227.33305Q547.73126 227.44243 547.3094 227.52055Q546.90314 227.59868 546.40314 227.59868Q545.45 227.59868 544.66876 227.33305Q543.8875 227.06743 543.325 226.50493Q542.7625 225.94243 542.4344 225.08305Q542.1219 224.22368 542.1219 223.08305Q542.1219 222.00493 542.41876 221.16118Q542.73126 220.31743 543.3094 219.72368Q543.8719 219.16118 544.65314 218.8643Q545.4344 218.5518 546.40314 218.5518Q547.10626 218.5518 547.8094 218.72368Q548.5125 218.89555 549.35626 219.33305L549.35626 220.70805L549.27814 220.70805Q548.5594 220.09868 547.84064 219.83305Q547.1375 219.5518 546.325 219.5518Q545.66876 219.5518 545.1375 219.77055Q544.60626 219.97368 544.1844 220.4268Q543.77814 220.8643 543.54376 221.53618Q543.325 222.20805 543.325 223.08305Q543.325 224.00493 543.575 224.6768Q543.825 225.33305 544.21564 225.75493Q544.6375 226.1768 545.1844 226.39555Q545.73126 226.59868 546.34064 226.59868Q547.16876 226.59868 547.90314 226.31743Q548.6375 226.02055 549.27814 225.44243L549.35626 225.44243L549.35626 226.8018ZM556.10626 224.1768Q556.10626 225.77055 555.27814 226.70805Q554.46564 227.62993 553.09064 227.62993Q551.7 227.62993 550.8875 226.70805Q550.075 225.77055 550.075 224.1768Q550.075 222.56743 550.8875 221.64555Q551.7 220.70805 553.09064 220.70805Q554.46564 220.70805 555.27814 221.64555Q556.10626 222.56743 556.10626 224.1768ZM554.98126 224.1768Q554.98126 222.89555 554.48126 222.28618Q553.98126 221.66118 553.09064 221.66118Q552.2 221.66118 551.7 222.28618Q551.21564 222.89555 551.21564 224.1768Q551.21564 225.39555 551.7 226.03618Q552.2 226.6768 553.09064 226.6768Q553.98126 226.6768 554.48126 226.0518Q554.98126 225.41118 554.98126 224.1768ZM562.84064 227.44243L561.7469 227.44243L561.7469 226.75493Q561.2625 227.16118 560.7469 227.39555Q560.23126 227.62993 559.6375 227.62993Q558.46564 227.62993 557.77814 226.72368Q557.09064 225.81743 557.09064 224.22368Q557.09064 223.37993 557.325 222.7393Q557.5594 222.08305 557.96564 221.62993Q558.35626 221.1768 558.8875 220.94243Q559.41876 220.70805 559.9969 220.70805Q560.5125 220.70805 560.90314 220.81743Q561.3094 220.9268 561.7469 221.16118L561.7469 218.31743L562.84064 218.31743L562.84064 227.44243ZM561.7469 225.83305L561.7469 222.06743Q561.29376 221.87993 560.9344 221.8018Q560.59064 221.72368 560.1844 221.72368Q559.2469 221.72368 558.73126 222.3643Q558.21564 223.00493 558.21564 224.19243Q558.21564 225.3643 558.60626 225.97368Q559.0125 226.56743 559.90314 226.56743Q560.3719 226.56743 560.84064 226.3643Q561.325 226.16118 561.7469 225.83305ZM565.71564 219.8018L564.48126 219.8018L564.48126 218.66118L565.71564 218.66118L565.71564 219.8018ZM565.65314 227.44243L564.54376 227.44243L564.54376 220.89555L565.65314 220.89555L565.65314 227.44243ZM573.0125 227.44243L571.90314 227.44243L571.90314 223.70805Q571.90314 223.27055 571.84064 222.87993Q571.79376 222.47368 571.65314 222.25493Q571.5125 222.00493 571.23126 221.89555Q570.96564 221.77055 570.52814 221.77055Q570.075 221.77055 569.575 221.9893Q569.09064 222.20805 568.6375 222.5518L568.6375 227.44243L567.52814 227.44243L567.52814 220.89555L568.6375 220.89555L568.6375 221.62993Q569.15314 221.19243 569.7 220.95805Q570.2469 220.70805 570.84064 220.70805Q571.8875 220.70805 572.45 221.34868Q573.0125 221.9893 573.0125 223.19243L573.0125 227.44243ZM580.84064 226.69243Q580.84064 228.3643 580.075 229.14555Q579.325 229.9268 577.7625 229.9268Q577.2469 229.9268 576.7469 229.84868Q576.2469 229.77055 575.7625 229.64555L575.7625 228.52055L575.825 228.52055Q576.09064 228.6143 576.66876 228.77055Q577.2625 228.9268 577.85626 228.9268Q578.41876 228.9268 578.77814 228.78618Q579.15314 228.66118 579.35626 228.4268Q579.5594 228.19243 579.65314 227.8643Q579.7469 227.5518 579.7469 227.14555L579.7469 226.5518Q579.2469 226.94243 578.79376 227.14555Q578.34064 227.34868 577.6375 227.34868Q576.46564 227.34868 575.77814 226.50493Q575.09064 225.64555 575.09064 224.1143Q575.09064 223.27055 575.325 222.66118Q575.5594 222.03618 575.96564 221.59868Q576.35626 221.1768 576.8875 220.94243Q577.4344 220.70805 577.98126 220.70805Q578.54376 220.70805 578.91876 220.83305Q579.3094 220.94243 579.7469 221.1768L579.8094 220.89555L580.84064 220.89555L580.84064 226.69243ZM579.7469 225.64555L579.7469 222.06743Q579.3094 221.87993 578.91876 221.8018Q578.54376 221.70805 578.16876 221.70805Q577.2625 221.70805 576.73126 222.31743Q576.21564 222.9268 576.21564 224.08305Q576.21564 225.19243 576.60626 225.75493Q576.9969 226.31743 577.8875 226.31743Q578.3719 226.31743 578.85626 226.14555Q579.34064 225.95805 579.7469 225.64555Z" fill-rule="nonzero"/><path fill="#9e9e9e" d="M547.4969 243.9893L546.2 243.9893L546.2 246.44243L545.075 246.44243L545.075 243.9893L540.90314 243.9893L540.90314 242.64555L545.1219 237.72368L546.2 237.72368L546.2 243.0518L547.4969 243.0518L547.4969 243.9893ZM545.075 243.0518L545.075 239.1143L541.7 243.0518L545.075 243.0518ZM555.3719 244.00493Q555.3719 245.14555 554.48126 245.89555Q553.60626 246.64555 552.2625 246.64555Q550.84064 246.64555 549.9969 245.91118Q549.16876 245.1768 549.16876 244.03618Q549.16876 243.3018 549.59064 242.72368Q550.0125 242.12993 550.77814 241.78618L550.77814 241.75493Q550.075 241.37993 549.73126 240.94243Q549.40314 240.4893 549.40314 239.81743Q549.40314 238.83305 550.2 238.1768Q551.0125 237.52055 552.2625 237.52055Q553.575 237.52055 554.35626 238.14555Q555.1375 238.77055 555.1375 239.7393Q555.1375 240.33305 554.7625 240.91118Q554.3875 241.47368 553.6844 241.8018L553.6844 241.83305Q554.4969 242.1768 554.9344 242.69243Q555.3719 243.20805 555.3719 244.00493ZM553.98126 239.75493Q553.98126 239.12993 553.4969 238.75493Q553.0125 238.37993 552.2625 238.37993Q551.52814 238.37993 551.04376 238.7393Q550.575 239.08305 550.575 239.6768Q550.575 240.09868 550.8094 240.41118Q551.0594 240.72368 551.52814 240.95805Q551.7469 241.06743 552.15314 241.2393Q552.5594 241.39555 552.95 241.52055Q553.52814 241.12993 553.7469 240.72368Q553.98126 240.3018 553.98126 239.75493ZM554.15314 244.1143Q554.15314 243.58305 553.91876 243.25493Q553.6844 242.9268 552.9969 242.59868Q552.71564 242.47368 552.3875 242.3643Q552.0594 242.25493 551.5125 242.0518Q550.98126 242.33305 550.66876 242.83305Q550.35626 243.31743 550.35626 243.94243Q550.35626 244.7393 550.8875 245.25493Q551.4344 245.77055 552.27814 245.77055Q553.1375 245.77055 553.6375 245.33305Q554.15314 244.89555 554.15314 244.1143ZM559.825 244.77055L558.16876 248.6143L557.3094 248.6143L558.325 244.77055L559.825 244.77055ZM567.4344 243.6143Q567.4344 244.94243 566.5594 245.78618Q565.6844 246.62993 564.40314 246.62993Q563.7625 246.62993 563.23126 246.4268Q562.7 246.22368 562.3094 245.83305Q561.79376 245.34868 561.5125 244.5518Q561.2469 243.7393 561.2469 242.6143Q561.2469 241.44243 561.4969 240.5518Q561.7469 239.66118 562.29376 238.95805Q562.8094 238.3018 563.6219 237.9268Q564.4344 237.5518 565.52814 237.5518Q565.8719 237.5518 566.10626 237.58305Q566.34064 237.6143 566.575 237.69243L566.575 238.8018L566.52814 238.8018Q566.35626 238.72368 566.02814 238.64555Q565.7 238.56743 565.35626 238.56743Q564.09064 238.56743 563.34064 239.34868Q562.59064 240.12993 562.46564 241.47368Q562.96564 241.1768 563.4344 241.02055Q563.91876 240.8643 564.54376 240.8643Q565.09064 240.8643 565.5125 240.97368Q565.95 241.06743 566.3875 241.37993Q566.90314 241.7393 567.16876 242.28618Q567.4344 242.83305 567.4344 243.6143ZM566.2469 243.66118Q566.2469 243.1143 566.075 242.75493Q565.91876 242.39555 565.54376 242.12993Q565.27814 241.94243 564.95 241.89555Q564.6219 241.83305 564.2625 241.83305Q563.7625 241.83305 563.34064 241.95805Q562.91876 242.06743 562.46564 242.31743Q562.45 242.44243 562.4344 242.56743Q562.4344 242.6768 562.4344 242.8643Q562.4344 243.78618 562.6219 244.33305Q562.825 244.8643 563.15314 245.1768Q563.41876 245.4268 563.73126 245.5518Q564.04376 245.66118 564.41876 245.66118Q565.2625 245.66118 565.7469 245.14555Q566.2469 244.62993 566.2469 243.66118ZM573.6375 240.12993Q573.6375 241.44243 573.075 242.08305Q572.52814 242.72368 571.48126 242.72368Q570.41876 242.72368 569.8719 242.08305Q569.325 241.44243 569.325 240.14555Q569.325 238.83305 569.8719 238.19243Q570.4344 237.5518 571.48126 237.5518Q572.54376 237.5518 573.09064 238.20805Q573.6375 238.84868 573.6375 240.12993ZM577.6844 237.72368L573.10626 246.44243L572.1375 246.44243L576.71564 237.72368L577.6844 237.72368ZM580.4969 244.02055Q580.4969 245.33305 579.9344 245.97368Q579.3719 246.6143 578.34064 246.6143Q577.27814 246.6143 576.73126 245.97368Q576.1844 245.31743 576.1844 244.02055Q576.1844 242.70805 576.73126 242.08305Q577.29376 241.44243 578.34064 241.44243Q579.40314 241.44243 579.95 242.08305Q580.4969 242.70805 580.4969 244.02055ZM572.59064 240.12993Q572.59064 239.12993 572.325 238.7393Q572.0594 238.33305 571.48126 238.33305Q570.8875 238.33305 570.6219 238.7393Q570.3719 239.12993 570.3719 240.14555Q570.3719 241.16118 570.6219 241.5518Q570.8875 241.94243 571.48126 241.94243Q572.0594 241.94243 572.325 241.5518Q572.59064 241.16118 572.59064 240.12993ZM579.45 244.02055Q579.45 243.02055 579.1844 242.62993Q578.9344 242.22368 578.34064 242.22368Q577.7469 242.22368 577.48126 242.62993Q577.23126 243.02055 577.23126 244.02055Q577.23126 245.03618 577.48126 245.44243Q577.7469 245.83305 578.34064 245.83305Q578.9344 245.83305 579.1844 245.44243Q579.45 245.03618 579.45 244.02055Z" fill-rule="nonzero"/><path stroke="#757575" stroke-width="1.0" stroke-linecap="butt" d="M581.45 231.94243L472.95 231.94243L451.65042 231.94243" fill-rule="nonzero"/><path fill="#9e9e9e" d="M453.65042 231.94243C453.65042 230.83786 452.755 229.94243 451.65042 229.94243C450.54587 229.94243 449.65042 230.83786 449.65042 231.94243C449.65042 233.047 450.54587 233.94243 451.65042 233.94243C452.755 233.94243 453.65042 233.047 453.65042 231.94243" fill-rule="nonzero"/></svg>